<mxfile host="app.diagrams.net" modified="2023-01-29T20:29:47.909Z" agent="5.0 (Macintosh; Intel Mac OS X 10_11_6) AppleWebKit/537.36 (KHTML, like Gecko) Chrome/103.0.0.0 Safari/537.36" etag="Mz4uiKfsQcnN5256v_Jy" version="20.8.13" type="github">
  <diagram id="C5RBs43oDa-KdzZeNtuy" name="Page-1">
    <mxGraphModel dx="880" dy="1685" grid="1" gridSize="10" guides="1" tooltips="1" connect="1" arrows="1" fold="1" page="1" pageScale="1" pageWidth="827" pageHeight="1169" math="0" shadow="0">
      <root>
        <mxCell id="WIyWlLk6GJQsqaUBKTNV-0" />
        <mxCell id="WIyWlLk6GJQsqaUBKTNV-1" parent="WIyWlLk6GJQsqaUBKTNV-0" />
        <mxCell id="Yc8B-62v0CxM8o_cgGM--0" value="Start" style="ellipse;whiteSpace=wrap;html=1;" vertex="1" parent="WIyWlLk6GJQsqaUBKTNV-1">
          <mxGeometry x="280" y="-10" width="100" height="30" as="geometry" />
        </mxCell>
        <mxCell id="Yc8B-62v0CxM8o_cgGM--1" value="" style="endArrow=classic;html=1;rounded=0;" edge="1" parent="WIyWlLk6GJQsqaUBKTNV-1">
          <mxGeometry width="50" height="50" relative="1" as="geometry">
            <mxPoint x="330" y="90" as="sourcePoint" />
            <mxPoint x="329.5" y="130" as="targetPoint" />
          </mxGeometry>
        </mxCell>
        <mxCell id="Yc8B-62v0CxM8o_cgGM--2" value="sum=0" style="rounded=0;whiteSpace=wrap;html=1;" vertex="1" parent="WIyWlLk6GJQsqaUBKTNV-1">
          <mxGeometry x="270" y="130" width="120" height="40" as="geometry" />
        </mxCell>
        <mxCell id="Yc8B-62v0CxM8o_cgGM--11" value="" style="endArrow=classic;html=1;rounded=0;" edge="1" parent="WIyWlLk6GJQsqaUBKTNV-1">
          <mxGeometry width="50" height="50" relative="1" as="geometry">
            <mxPoint x="330" y="450" as="sourcePoint" />
            <mxPoint x="330" y="450" as="targetPoint" />
            <Array as="points">
              <mxPoint x="329.5" y="390" />
            </Array>
          </mxGeometry>
        </mxCell>
        <mxCell id="Yc8B-62v0CxM8o_cgGM--12" value="Print" style="shape=parallelogram;perimeter=parallelogramPerimeter;whiteSpace=wrap;html=1;fixedSize=1;" vertex="1" parent="WIyWlLk6GJQsqaUBKTNV-1">
          <mxGeometry x="265" y="450" width="120" height="60" as="geometry" />
        </mxCell>
        <mxCell id="Yc8B-62v0CxM8o_cgGM--13" value="" style="endArrow=classic;html=1;rounded=0;" edge="1" parent="WIyWlLk6GJQsqaUBKTNV-1">
          <mxGeometry width="50" height="50" relative="1" as="geometry">
            <mxPoint x="329.5" y="510" as="sourcePoint" />
            <mxPoint x="329.5" y="570" as="targetPoint" />
          </mxGeometry>
        </mxCell>
        <mxCell id="Yc8B-62v0CxM8o_cgGM--14" value="End" style="ellipse;whiteSpace=wrap;html=1;" vertex="1" parent="WIyWlLk6GJQsqaUBKTNV-1">
          <mxGeometry x="265" y="570" width="120" height="60" as="geometry" />
        </mxCell>
        <mxCell id="Yc8B-62v0CxM8o_cgGM--15" style="edgeStyle=orthogonalEdgeStyle;rounded=0;orthogonalLoop=1;jettySize=auto;html=1;exitX=0.5;exitY=1;exitDx=0;exitDy=0;" edge="1" parent="WIyWlLk6GJQsqaUBKTNV-1" source="Yc8B-62v0CxM8o_cgGM--0" target="Yc8B-62v0CxM8o_cgGM--0">
          <mxGeometry relative="1" as="geometry" />
        </mxCell>
        <mxCell id="Yc8B-62v0CxM8o_cgGM--16" value="Calculate a running sum" style="text;html=1;strokeColor=none;fillColor=none;align=center;verticalAlign=middle;whiteSpace=wrap;rounded=0;" vertex="1" parent="WIyWlLk6GJQsqaUBKTNV-1">
          <mxGeometry x="130" y="-30" width="230" height="30" as="geometry" />
        </mxCell>
        <mxCell id="Yc8B-62v0CxM8o_cgGM--18" value="Task 2:" style="text;html=1;strokeColor=none;fillColor=none;align=center;verticalAlign=middle;whiteSpace=wrap;rounded=0;" vertex="1" parent="WIyWlLk6GJQsqaUBKTNV-1">
          <mxGeometry x="60" y="-30" width="60" height="30" as="geometry" />
        </mxCell>
        <mxCell id="Yc8B-62v0CxM8o_cgGM--20" value="" style="endArrow=classic;html=1;rounded=0;" edge="1" parent="WIyWlLk6GJQsqaUBKTNV-1">
          <mxGeometry width="50" height="50" relative="1" as="geometry">
            <mxPoint x="390" y="250" as="sourcePoint" />
            <mxPoint x="440" y="240" as="targetPoint" />
            <Array as="points">
              <mxPoint x="390" y="240" />
              <mxPoint x="370" y="240" />
            </Array>
          </mxGeometry>
        </mxCell>
        <mxCell id="Yc8B-62v0CxM8o_cgGM--21" value="if y&amp;gt;=0" style="rhombus;whiteSpace=wrap;html=1;" vertex="1" parent="WIyWlLk6GJQsqaUBKTNV-1">
          <mxGeometry x="285" y="200" width="90" height="80" as="geometry" />
        </mxCell>
        <mxCell id="Yc8B-62v0CxM8o_cgGM--22" value="Input&lt;br&gt;num=y" style="shape=parallelogram;perimeter=parallelogramPerimeter;whiteSpace=wrap;html=1;fixedSize=1;" vertex="1" parent="WIyWlLk6GJQsqaUBKTNV-1">
          <mxGeometry x="275" y="50" width="110" height="40" as="geometry" />
        </mxCell>
        <mxCell id="Yc8B-62v0CxM8o_cgGM--23" style="edgeStyle=orthogonalEdgeStyle;rounded=0;orthogonalLoop=1;jettySize=auto;html=1;exitX=0.5;exitY=1;exitDx=0;exitDy=0;" edge="1" parent="WIyWlLk6GJQsqaUBKTNV-1" source="Yc8B-62v0CxM8o_cgGM--2" target="Yc8B-62v0CxM8o_cgGM--2">
          <mxGeometry relative="1" as="geometry" />
        </mxCell>
        <mxCell id="Yc8B-62v0CxM8o_cgGM--24" value="" style="endArrow=classic;html=1;rounded=0;" edge="1" parent="WIyWlLk6GJQsqaUBKTNV-1">
          <mxGeometry width="50" height="50" relative="1" as="geometry">
            <mxPoint x="330" y="20" as="sourcePoint" />
            <mxPoint x="329.5" y="50" as="targetPoint" />
          </mxGeometry>
        </mxCell>
        <mxCell id="Yc8B-62v0CxM8o_cgGM--25" value="" style="endArrow=classic;html=1;rounded=0;" edge="1" parent="WIyWlLk6GJQsqaUBKTNV-1">
          <mxGeometry width="50" height="50" relative="1" as="geometry">
            <mxPoint x="329.5" y="170" as="sourcePoint" />
            <mxPoint x="330" y="200" as="targetPoint" />
          </mxGeometry>
        </mxCell>
        <mxCell id="Yc8B-62v0CxM8o_cgGM--26" value="False" style="text;html=1;strokeColor=none;fillColor=none;align=center;verticalAlign=middle;whiteSpace=wrap;rounded=0;" vertex="1" parent="WIyWlLk6GJQsqaUBKTNV-1">
          <mxGeometry x="380" y="220" width="60" height="30" as="geometry" />
        </mxCell>
        <mxCell id="Yc8B-62v0CxM8o_cgGM--27" value="Sum=sum+y" style="rounded=0;whiteSpace=wrap;html=1;" vertex="1" parent="WIyWlLk6GJQsqaUBKTNV-1">
          <mxGeometry x="260" y="330" width="120" height="60" as="geometry" />
        </mxCell>
        <mxCell id="Yc8B-62v0CxM8o_cgGM--29" value="" style="endArrow=classic;html=1;rounded=0;" edge="1" parent="WIyWlLk6GJQsqaUBKTNV-1">
          <mxGeometry width="50" height="50" relative="1" as="geometry">
            <mxPoint x="329.5" y="330" as="sourcePoint" />
            <mxPoint x="329.5" y="330" as="targetPoint" />
            <Array as="points">
              <mxPoint x="329.5" y="280" />
            </Array>
          </mxGeometry>
        </mxCell>
        <mxCell id="Yc8B-62v0CxM8o_cgGM--30" value="" style="endArrow=classic;html=1;rounded=0;exitX=1;exitY=0.5;exitDx=0;exitDy=0;" edge="1" parent="WIyWlLk6GJQsqaUBKTNV-1" source="Yc8B-62v0CxM8o_cgGM--14">
          <mxGeometry width="50" height="50" relative="1" as="geometry">
            <mxPoint x="400" y="600" as="sourcePoint" />
            <mxPoint x="490" y="600" as="targetPoint" />
          </mxGeometry>
        </mxCell>
        <mxCell id="Yc8B-62v0CxM8o_cgGM--31" value="Print Y" style="shape=parallelogram;perimeter=parallelogramPerimeter;whiteSpace=wrap;html=1;fixedSize=1;" vertex="1" parent="WIyWlLk6GJQsqaUBKTNV-1">
          <mxGeometry x="430" y="210" width="120" height="60" as="geometry" />
        </mxCell>
        <mxCell id="Yc8B-62v0CxM8o_cgGM--32" value="" style="endArrow=classic;html=1;rounded=0;entryX=0.5;entryY=1;entryDx=0;entryDy=0;" edge="1" parent="WIyWlLk6GJQsqaUBKTNV-1" target="Yc8B-62v0CxM8o_cgGM--31">
          <mxGeometry width="50" height="50" relative="1" as="geometry">
            <mxPoint x="489.5" y="600" as="sourcePoint" />
            <mxPoint x="489.5" y="400" as="targetPoint" />
          </mxGeometry>
        </mxCell>
        <mxCell id="Yc8B-62v0CxM8o_cgGM--33" value="" style="endArrow=classic;html=1;rounded=0;" edge="1" parent="WIyWlLk6GJQsqaUBKTNV-1">
          <mxGeometry width="50" height="50" relative="1" as="geometry">
            <mxPoint x="260" y="360" as="sourcePoint" />
            <mxPoint x="280" y="240" as="targetPoint" />
            <Array as="points">
              <mxPoint x="140" y="360" />
            </Array>
          </mxGeometry>
        </mxCell>
        <mxCell id="Yc8B-62v0CxM8o_cgGM--34" value="True" style="text;html=1;strokeColor=none;fillColor=none;align=center;verticalAlign=middle;whiteSpace=wrap;rounded=0;" vertex="1" parent="WIyWlLk6GJQsqaUBKTNV-1">
          <mxGeometry x="160" y="270" width="70" height="30" as="geometry" />
        </mxCell>
      </root>
    </mxGraphModel>
  </diagram>
</mxfile>
